<svg width="337" height="185" viewBox="0 0 337 185" fill="none" xmlns="http://www.w3.org/2000/svg">
  <defs>
    <linearGradient id="gt" x1="30" y1="61" x2="314" y2="136" gradientUnits="userSpaceOnUse">
      <stop offset="0%"   stop-color="#ffd600"/>
      <stop offset="55%"  stop-color="#ffaa00"/>
      <stop offset="100%" stop-color="#8b9fff"/>
    </linearGradient>
    <style>
      @keyframes logo-shift {
        0%, 93.33%  { opacity: 0; }
        96.67%      { opacity: 1; }
        100%        { opacity: 0; }
      }
      .logo-brand-layer { animation: logo-shift 30s ease-in-out infinite; }
    </style>
  </defs>

  <!-- COUCHE 1 : gris original -->
  <path class="logo-grey-layer" d="M48.04 120L30.04 63.28H44.2L57.16 106.96H51L63.8 63.28H75.24L88.04 106.96H81.96L94.92 63.28H109L90.92 120H79.4L66.6 76.4H72.36L59.64 120H48.04ZM125.572 120.8C121.945 120.8 118.719 119.92 115.892 118.16C113.065 116.4 110.852 114 109.252 110.96C107.652 107.867 106.852 104.373 106.852 100.48C106.852 96.5333 107.652 93.0133 109.252 89.92C110.852 86.8267 113.065 84.4267 115.892 82.72C118.719 80.96 121.945 80.08 125.572 80.08C128.025 80.08 130.265 80.5333 132.292 81.44C134.319 82.2933 135.972 83.52 137.252 85.12C138.585 86.72 139.385 88.5333 139.652 90.56V110.24C139.385 112.32 138.585 114.16 137.252 115.76C135.972 117.307 134.319 118.533 132.292 119.44C130.265 120.347 128.025 120.8 125.572 120.8ZM128.532 108.4C130.825 108.4 132.665 107.653 134.052 106.16C135.492 104.667 136.212 102.747 136.212 100.4C136.212 98.8533 135.892 97.4933 135.252 96.32C134.612 95.1467 133.705 94.2133 132.532 93.52C131.412 92.8267 130.105 92.48 128.612 92.48C127.119 92.48 125.785 92.8267 124.612 93.52C123.492 94.2133 122.585 95.1733 121.892 96.4C121.252 97.5733 120.932 98.9067 120.932 100.4C120.932 101.947 121.252 103.333 121.892 104.56C122.532 105.733 123.439 106.667 124.612 107.36C125.785 108.053 127.092 108.4 128.532 108.4ZM135.652 120V109.52L137.652 99.92L135.652 90.48V80.88H149.332V120H135.652ZM157.455 120V61.68H171.375V120H157.455ZM195.884 120.8C192.258 120.8 189.031 119.92 186.204 118.16C183.378 116.4 181.164 114 179.564 110.96C177.964 107.867 177.164 104.373 177.164 100.48C177.164 96.5333 177.964 93.0133 179.564 89.92C181.164 86.8267 183.378 84.4267 186.204 82.72C189.031 80.96 192.258 80.08 195.884 80.08C198.338 80.08 200.578 80.5333 202.604 81.44C204.631 82.2933 206.284 83.52 207.564 85.12C208.898 86.72 209.698 88.5333 209.964 90.56V110.24C209.698 112.32 208.898 114.16 207.564 115.76C206.284 117.307 204.631 118.533 202.604 119.44C200.578 120.347 198.338 120.8 195.884 120.8ZM198.844 108.4C201.138 108.4 202.978 107.653 204.364 106.16C205.804 104.667 206.524 102.747 206.524 100.4C206.524 98.8533 206.204 97.4933 205.564 96.32C204.924 95.1467 204.018 94.2133 202.844 93.52C201.724 92.8267 200.418 92.48 198.924 92.48C197.431 92.48 196.098 92.8267 194.924 93.52C193.804 94.2133 192.898 95.1733 192.204 96.4C191.564 97.5733 191.244 98.9067 191.244 100.4C191.244 101.947 191.564 103.333 192.204 104.56C192.844 105.733 193.751 106.667 194.924 107.36C196.098 108.053 197.404 108.4 198.844 108.4ZM205.964 120V109.52L207.964 99.92L205.964 90.48V80.88H219.644V120H205.964ZM245.688 120.88C242.008 120.88 238.728 120.16 235.848 118.72C233.021 117.227 230.781 115.173 229.128 112.56C227.528 109.893 226.728 106.88 226.728 103.52V80.88H240.648V103.52C240.648 104.587 240.861 105.52 241.288 106.32C241.714 107.12 242.301 107.733 243.048 108.16C243.794 108.587 244.674 108.8 245.688 108.8C247.181 108.8 248.381 108.32 249.288 107.36C250.248 106.4 250.728 105.12 250.728 103.52V80.88H264.648V103.52C264.648 106.933 263.848 109.947 262.248 112.56C260.648 115.173 258.408 117.227 255.528 118.72C252.701 120.16 249.421 120.88 245.688 120.88ZM295.032 120.8C292.525 120.8 290.205 120.347 288.072 119.44C285.939 118.533 284.179 117.307 282.792 115.76C281.405 114.16 280.552 112.32 280.232 110.24V91.2C280.552 89.12 281.405 87.2533 282.792 85.6C284.232 83.8933 285.992 82.56 288.072 81.6C290.205 80.5867 292.525 80.08 295.032 80.08C298.819 80.08 302.152 80.96 305.032 82.72C307.912 84.4267 310.152 86.8267 311.752 89.92C313.405 93.0133 314.232 96.5333 314.232 100.48C314.232 104.373 313.405 107.867 311.752 110.96C310.152 114 307.912 116.4 305.032 118.16C302.152 119.92 298.819 120.8 295.032 120.8ZM271.752 136.56V80.88H285.672V90.72L283.352 100.16L285.352 109.68V136.56H271.752ZM292.392 108.4C293.939 108.4 295.299 108.053 296.472 107.36C297.645 106.667 298.552 105.733 299.192 104.56C299.832 103.333 300.152 101.947 300.152 100.4C300.152 98.8533 299.832 97.4933 299.192 96.32C298.552 95.1467 297.645 94.2133 296.472 93.52C295.299 92.8267 293.965 92.48 292.472 92.48C291.032 92.48 289.725 92.8267 288.552 93.52C287.379 94.16 286.472 95.0933 285.832 96.32C285.192 97.4933 284.872 98.8533 284.872 100.4C284.872 101.947 285.192 103.333 285.832 104.56C286.472 105.733 287.352 106.667 288.472 107.36C289.645 108.053 290.952 108.4 292.392 108.4Z" fill="#C1BFBF"/>

  <!-- COUCHE 2 : gradient brand (animée) -->
  <path class="logo-brand-layer" d="M48.04 120L30.04 63.28H44.2L57.16 106.96H51L63.8 63.28H75.24L88.04 106.96H81.96L94.92 63.28H109L90.92 120H79.4L66.6 76.4H72.36L59.64 120H48.04ZM125.572 120.8C121.945 120.8 118.719 119.92 115.892 118.16C113.065 116.4 110.852 114 109.252 110.96C107.652 107.867 106.852 104.373 106.852 100.48C106.852 96.5333 107.652 93.0133 109.252 89.92C110.852 86.8267 113.065 84.4267 115.892 82.72C118.719 80.96 121.945 80.08 125.572 80.08C128.025 80.08 130.265 80.5333 132.292 81.44C134.319 82.2933 135.972 83.52 137.252 85.12C138.585 86.72 139.385 88.5333 139.652 90.56V110.24C139.385 112.32 138.585 114.16 137.252 115.76C135.972 117.307 134.319 118.533 132.292 119.44C130.265 120.347 128.025 120.8 125.572 120.8ZM128.532 108.4C130.825 108.4 132.665 107.653 134.052 106.16C135.492 104.667 136.212 102.747 136.212 100.4C136.212 98.8533 135.892 97.4933 135.252 96.32C134.612 95.1467 133.705 94.2133 132.532 93.52C131.412 92.8267 130.105 92.48 128.612 92.48C127.119 92.48 125.785 92.8267 124.612 93.52C123.492 94.2133 122.585 95.1733 121.892 96.4C121.252 97.5733 120.932 98.9067 120.932 100.4C120.932 101.947 121.252 103.333 121.892 104.56C122.532 105.733 123.439 106.667 124.612 107.36C125.785 108.053 127.092 108.4 128.532 108.4ZM135.652 120V109.52L137.652 99.92L135.652 90.48V80.88H149.332V120H135.652ZM157.455 120V61.68H171.375V120H157.455ZM195.884 120.8C192.258 120.8 189.031 119.92 186.204 118.16C183.378 116.4 181.164 114 179.564 110.96C177.964 107.867 177.164 104.373 177.164 100.48C177.164 96.5333 177.964 93.0133 179.564 89.92C181.164 86.8267 183.378 84.4267 186.204 82.72C189.031 80.96 192.258 80.08 195.884 80.08C198.338 80.08 200.578 80.5333 202.604 81.44C204.631 82.2933 206.284 83.52 207.564 85.12C208.898 86.72 209.698 88.5333 209.964 90.56V110.24C209.698 112.32 208.898 114.16 207.564 115.76C206.284 117.307 204.631 118.533 202.604 119.44C200.578 120.347 198.338 120.8 195.884 120.8ZM198.844 108.4C201.138 108.4 202.978 107.653 204.364 106.16C205.804 104.667 206.524 102.747 206.524 100.4C206.524 98.8533 206.204 97.4933 205.564 96.32C204.924 95.1467 204.018 94.2133 202.844 93.52C201.724 92.8267 200.418 92.48 198.924 92.48C197.431 92.48 196.098 92.8267 194.924 93.52C193.804 94.2133 192.898 95.1733 192.204 96.4C191.564 97.5733 191.244 98.9067 191.244 100.4C191.244 101.947 191.564 103.333 192.204 104.56C192.844 105.733 193.751 106.667 194.924 107.36C196.098 108.053 197.404 108.4 198.844 108.4ZM205.964 120V109.52L207.964 99.92L205.964 90.48V80.88H219.644V120H205.964ZM245.688 120.88C242.008 120.88 238.728 120.16 235.848 118.72C233.021 117.227 230.781 115.173 229.128 112.56C227.528 109.893 226.728 106.88 226.728 103.52V80.88H240.648V103.52C240.648 104.587 240.861 105.52 241.288 106.32C241.714 107.12 242.301 107.733 243.048 108.16C243.794 108.587 244.674 108.8 245.688 108.8C247.181 108.8 248.381 108.32 249.288 107.36C250.248 106.4 250.728 105.12 250.728 103.52V80.88H264.648V103.52C264.648 106.933 263.848 109.947 262.248 112.56C260.648 115.173 258.408 117.227 255.528 118.72C252.701 120.16 249.421 120.88 245.688 120.88ZM295.032 120.8C292.525 120.8 290.205 120.347 288.072 119.44C285.939 118.533 284.179 117.307 282.792 115.76C281.405 114.16 280.552 112.32 280.232 110.24V91.2C280.552 89.12 281.405 87.2533 282.792 85.6C284.232 83.8933 285.992 82.56 288.072 81.6C290.205 80.5867 292.525 80.08 295.032 80.08C298.819 80.08 302.152 80.96 305.032 82.72C307.912 84.4267 310.152 86.8267 311.752 89.92C313.405 93.0133 314.232 96.5333 314.232 100.48C314.232 104.373 313.405 107.867 311.752 110.96C310.152 114 307.912 116.4 305.032 118.16C302.152 119.92 298.819 120.8 295.032 120.8ZM271.752 136.56V80.88H285.672V90.72L283.352 100.16L285.352 109.68V136.56H271.752ZM292.392 108.4C293.939 108.4 295.299 108.053 296.472 107.36C297.645 106.667 298.552 105.733 299.192 104.56C299.832 103.333 300.152 101.947 300.152 100.4C300.152 98.8533 299.832 97.4933 299.192 96.32C298.552 95.1467 297.645 94.2133 296.472 93.52C295.299 92.8267 293.965 92.48 292.472 92.48C291.032 92.48 289.725 92.8267 288.552 93.52C287.379 94.16 286.472 95.0933 285.832 96.32C285.192 97.4933 284.872 98.8533 284.872 100.4C284.872 101.947 285.192 103.333 285.832 104.56C286.472 105.733 287.352 106.667 288.472 107.36C289.645 108.053 290.952 108.4 292.392 108.4Z" fill="url(#gt)"/>
</svg>